<?xml version="1.0" ?><svg height="24px" version="1.1" viewBox="0 0 24 24" width="24px" xmlns="http://www.w3.org/2000/svg" xmlns:sketch="http://www.bohemiancoding.com/sketch/ns" xmlns:xlink="http://www.w3.org/1999/xlink"><title/><desc/><defs/><g fill="none" fill-rule="evenodd" id="miu" stroke="none" stroke-width="1"><g id="Artboard-1" transform="translate(-755.000000, -407.000000)"><g id="slice" transform="translate(215.000000, 119.000000)"/><path d="M757.002462,409 C756.448817,409 756,409.44892 756,410.007484 L756,422.992516 C756,423.548934 756.44266,424 756.998957,424 L759,424 L761.817098,427.275381 C762.177535,427.694454 762.770716,427.690228 763.133744,427.275381 L766,424 L776.997527,424 C777.551177,424 778,423.55108 778,422.992516 L778,410.007484 C778,409.451066 777.560542,409 776.997538,409 L757.002462,409 Z M760.220185,413 C760.09858,413 760,413.09954 760,413.221932 L760,413.778068 C760,413.900637 760.097166,414 760.220185,414 L772.779815,414 C772.90142,414 773,413.90046 773,413.778068 L773,413.221932 C773,413.099363 772.902834,413 772.779815,413 L760.220185,413 Z M760.220185,416 C760.09858,416 760,416.09954 760,416.221932 L760,416.778068 C760,416.900637 760.097166,417 760.220185,417 L772.779815,417 C772.90142,417 773,416.90046 773,416.778068 L773,416.221932 C773,416.099363 772.902834,416 772.779815,416 L760.220185,416 Z M760.209221,419 C760.093671,419 760,419.09954 760,419.221932 L760,419.778068 C760,419.900637 760.094985,420 760.209221,420 L768.790779,420 C768.906329,420 769,419.90046 769,419.778068 L769,419.221932 C769,419.099363 768.905015,419 768.790779,419 L760.209221,419 Z" fill="#000000" id="other-review-comment-glyph"/></g></g></svg>