<?xml version="1.0" ?><svg height="24px" version="1.1" viewBox="0 0 24 24" width="24px" xmlns="http://www.w3.org/2000/svg" xmlns:sketch="http://www.bohemiancoding.com/sketch/ns" xmlns:xlink="http://www.w3.org/1999/xlink"><title/><desc/><defs/><g fill="none" fill-rule="evenodd" id="miu" stroke="none" stroke-width="1"><g id="Artboard-1" transform="translate(-899.000000, -407.000000)"><g id="slice" transform="translate(215.000000, 119.000000)"/><path d="M912.5,414 L902.5,414 C900,414 900,416.497925 900,416.497925 L900,422.5 C900,422.5 900,425.009766 902.5,425.009766 L903.014665,425.009765 L904.77789,426.756093 L906.503418,425.009766 L912.5,425.009766 C915,425.009766 915,422.5 915,422.5 L915,416.5 C915,416.5 915,414 912.5,414 L912.5,414 Z M909.5,411 C907,411 907,413.497925 907,413.497925 L912.672974,413.5 C915.487553,413.5 915.487553,416.305664 915.487553,416.305664 L915.487553,422.009766 L917.020509,423.756093 L918.508545,422.009766 L919.5,422.009766 C922,422.009766 922,419.5 922,419.5 L922,413.5 C922,413.5 922,411 919.5,411 L909.5,411 Z" fill="#000000" id="other-conversation-review-comment-bubble-talk-glyph"/></g></g></svg>