<?xml version="1.0" encoding="UTF-8" standalone="no"?>
<!-- Created with Inkscape (http://www.inkscape.org/) -->

<svg
   xmlns:dc="http://purl.org/dc/elements/1.1/"
   xmlns:cc="http://creativecommons.org/ns#"
   xmlns:rdf="http://www.w3.org/1999/02/22-rdf-syntax-ns#"
   xmlns:svg="http://www.w3.org/2000/svg"
   xmlns="http://www.w3.org/2000/svg"
   xmlns:sodipodi="http://sodipodi.sourceforge.net/DTD/sodipodi-0.dtd"
   xmlns:inkscape="http://www.inkscape.org/namespaces/inkscape"
   width="32"
   height="32"
   viewBox="0 0 31.999999 31.999998"
   id="svg4371"
   version="1.1"
   inkscape:version="0.91 r13725"
   sodipodi:docname="point-d-eau.svg">
  <defs
     id="defs4373" />
  <sodipodi:namedview
     id="base"
     pagecolor="#ffffff"
     bordercolor="#666666"
     borderopacity="1.0"
     inkscape:pageopacity="0.0"
     inkscape:pageshadow="2"
     inkscape:zoom="8.8830289"
     inkscape:cx="12.855756"
     inkscape:cy="26.791313"
     inkscape:document-units="px"
     inkscape:current-layer="layer1"
     showgrid="false"
     inkscape:window-width="1366"
     inkscape:window-height="745"
     inkscape:window-x="0"
     inkscape:window-y="23"
     inkscape:window-maximized="1"
     units="px" />
  <metadata
     id="metadata4376">
    <rdf:RDF>
      <cc:Work
         rdf:about="">
        <dc:format>image/svg+xml</dc:format>
        <dc:type
           rdf:resource="http://purl.org/dc/dcmitype/StillImage" />
        <dc:title></dc:title>
      </cc:Work>
    </rdf:RDF>
  </metadata>
  <g
     inkscape:label="Calque 1"
     inkscape:groupmode="layer"
     id="layer1"
     transform="translate(0,-1020.3622)">
    <g
       transform="translate(-160,-3.8146966e-6)"
       id="g4332"
       style="opacity:1;fill:#ffffff">
      <g
         style="opacity:1;fill:#ffffff;fill-opacity:1;stroke:#ffffff;stroke-opacity:1"
         id="g4336">
        <path
           id="path412-6"
           d="m 176.0918,1022.3622 c -1.85214,3.9764 -4.31355,7.6258 -7.125,11.0234 l -1.25782,1.7286 c -0.39372,0.6126 -0.73612,1.2639 -1.07031,1.9179 -0.33007,0.8118 -0.50325,1.6936 -0.63867,2.543 l 0,1.2793 c 0.19408,4.3484 3.67564,8.5353 7.94922,9.2832 0.40296,0.1615 0.87893,0.1566 1.29297,0.2246 l 1.51562,0 c 0.41406,-0.068 0.89002,-0.063 1.29297,-0.2246 3.96304,-0.7103 7.37948,-4.3979 7.83789,-8.457 0.0997,-0.2405 0.0299,-0.5599 0.11133,-0.7891 l 0,-1.2402 c -0.0924,-0.7517 -0.25922,-1.5263 -0.52539,-2.2442 -0.38818,-0.8494 -0.8718,-1.632 -1.36719,-2.4062 -0.33271,-0.4022 -0.63918,-0.8156 -0.92383,-1.2403 -2.63585,-3.1533 -5.04956,-6.5084 -6.58007,-10.2988 l -0.51172,-1.0996 z m -0.0371,7.1992 0.30664,0.6602 c 0.9183,2.2742 2.36771,4.2877 3.94922,6.1797 0.17079,0.2548 0.35505,0.5028 0.55468,0.7441 0.29723,0.4645 0.58741,0.9337 0.82032,1.4434 0.1597,0.4307 0.259,0.8946 0.31445,1.3457 l 0,0.7441 c -0.0488,0.1376 -0.007,0.3303 -0.0664,0.4746 -0.27504,2.4354 -2.3253,4.648 -4.70312,5.0742 -0.24177,0.097 -0.52695,0.094 -0.77539,0.1348 l -0.91016,0 c -0.24842,-0.041 -0.53361,-0.038 -0.77539,-0.1348 -2.56415,-0.4487 -4.65308,-2.9613 -4.76953,-5.5703 l 0,-0.7676 c 0.0813,-0.5096 0.18477,-1.0382 0.38281,-1.5253 0.20052,-0.3924 0.40635,-0.7828 0.64258,-1.1504 l 0.75391,-1.0371 c 1.68687,-2.0385 3.1641,-4.2295 4.27539,-6.6153 z"
           style="opacity:1;fill:#ffffff;fill-opacity:1;stroke:#ffffff;stroke-width:4;stroke-linecap:square;stroke-linejoin:miter;stroke-miterlimit:4;stroke-dasharray:none;stroke-opacity:1"
           inkscape:connector-curvature="0" />
        <rect
           y="1033.2372"
           x="171.75"
           height="13.5"
           width="8.6875"
           id="rect4330"
           style="opacity:1;fill:#ffffff;fill-opacity:1;fill-rule:nonzero;stroke:none;stroke-width:3.99999976;stroke-linecap:square;stroke-linejoin:miter;stroke-miterlimit:4;stroke-dasharray:none;stroke-dashoffset:0;stroke-opacity:1" />
      </g>
    </g>
    <path
       style="fill:#3465a4;fill-opacity:1;stroke:none;stroke-opacity:1"
       d="m 16.091798,1022.3621 c -1.85214,3.9764 -4.313549,7.6258 -7.1249986,11.0234 l -1.25782,1.7286 c -0.39372,0.6126 -0.73612,1.2639 -1.07031,1.9179 -0.33007,0.8118 -0.50325,1.6936 -0.6386697,2.543 l 0,1.2793 c 0.1940797,4.3484 3.6756397,8.5353 7.9492183,9.2832 0.40296,0.1615 0.87893,0.1566 1.29297,0.2246 l 1.515619,0 c 0.41406,-0.068 0.89002,-0.063 1.29297,-0.2246 3.96304,-0.7103 7.379479,-4.3979 7.837889,-8.457 0.0997,-0.2405 0.0299,-0.5599 0.11133,-0.7891 l 0,-1.2402 c -0.0924,-0.7517 -0.25922,-1.5263 -0.52539,-2.2442 -0.38818,-0.8494 -0.871799,-1.632 -1.367189,-2.4062 -0.33271,-0.4022 -0.63918,-0.8156 -0.92383,-1.2403 -2.63585,-3.1533 -5.04956,-6.5084 -6.58007,-10.2988 l -0.511719,-1.0996 z m -0.0371,7.1992 0.30664,0.6602 c 0.918299,2.2742 2.367709,4.2877 3.949219,6.1797 0.17079,0.2548 0.35505,0.5028 0.55468,0.7441 0.29723,0.4645 0.58741,0.9337 0.82032,1.4434 0.1597,0.4307 0.259,0.8946 0.31445,1.3457 l 0,0.7441 c -0.0488,0.1376 -0.007,0.3303 -0.0664,0.4746 -0.27504,2.4354 -2.3253,4.648 -4.70312,5.0742 -0.24177,0.097 -0.52695,0.095 -0.775389,0.1348 l -0.91016,0 c -0.24842,-0.041 -0.53361,-0.037 -0.77539,-0.1348 -2.56415,-0.4487 -4.653079,-2.9613 -4.769529,-5.5703 l 0,-0.7675 c 0.0813,-0.5096 0.18477,-1.0383 0.38281,-1.5254 0.20052,-0.3924 0.40635,-0.7828 0.64258,-1.1504 l 0.75391,-1.0371 c 1.686869,-2.0385 3.164099,-4.2295 4.275389,-6.6153 z"
       id="path412"
       inkscape:connector-curvature="0" />
  </g>
</svg>
