<svg class="svg replaced-svg" viewBox="0 0 200 70" height="70" width="200" xmlns="http://www.w3.org/2000/svg">
  <g transform="translate(0,-982.36216)">
    <path d="m 165.48729,1038.6987 c 0.0587,-10.8035 -0.86266,-13.459 -1.28258,-19.7603 l 18.60435,0 c -0.32298,6.3975 -0.93898,10.3717 -0.80283,19.737" style="fill:#efefef;stroke:#333333;stroke-width:3;stroke-linecap:butt;stroke-linejoin:miter;"></path>
    <path d="m 165.71429,1014.3264 c -5.53572,-2.8571 -3.39286,-7.8571 -3.39286,-7.8571 0,0 -7.64724,4.1299 -10.89286,-0.5357 -5.71428,-8.21434 0.71428,-10.17859 0.71428,-10.17859 0,0 -5.9112,-5.11308 0.17858,-9.2857 9.64286,-6.60715 7.85714,12.5 7.85714,12.5 0,0 2.5,-3.21429 5.71429,0.71428 3.21428,3.92861 1.78571,13.39281 1.78571,13.39281" style="fill:#cdcdcd;"></path>
    <path d="m 181.21366,1021.9376 c 1.76284,0.1475 2.3053,0.021 4.42116,0.4739 -0.53901,-4.1807 -7.17175,-7.0804 -12.44142,-13.6421 -4.17083,5.6424 -11.50235,10.0632 -11.71069,13.4625 2.47977,-0.3381 3.20789,-0.3304 4.491,-0.2943" style="fill:#efefef;stroke:#333333;stroke-width:3;stroke-linecap:butt;stroke-linejoin:round;"></path>
    <g transform="matrix(1.2913573,0,0,1.2853175,-2.0314857,952.5377)">
      <g transform="matrix(2.469674,0,0,2.469674,-384.4758,-130.6608)">
        <path style="fill:#efefef;" d="m 172.90823,64.040679 c -1.42347,0.899452 -2.17825,1.919746 -2.84288,3.249009 -0.38893,0.777855 -0.92624,1.100805 -1.62451,1.624505 -0.98763,0.740726 -1.95261,1.809396 -3.04595,2.538289 -0.6501,0.433404 -1.15132,1.196665 -1.6245,1.827568 -0.58239,0.776518 -1.12936,1.438119 -1.72604,2.233694 -0.64243,0.856574 -0.97091,1.884695 -1.72603,2.63982 -0.33674,0.336738 0.0479,0 -0.10153,0 -1.16011,0 -1.87165,3.932968 -2.13217,4.975046 -0.19486,0.779438 -0.91378,0.862486 -0.91378,1.522973 0,1.098518 3.75366,1.555815 4.26432,1.726037 2.4724,0.82413 5.15581,0.804817 7.61487,1.624505 1.49665,0.498883 3.28958,0.832538 4.67045,1.522973 1.67964,0.83982 4.34935,0.609189 6.19343,0.609189 2.11392,0 4.16111,-0.101531 6.29495,-0.101531 2.66295,0 5.41425,-0.304595 8.02099,-0.304595 0.54572,0 1.08301,-0.135376 1.62451,-0.203063 2.27489,-0.284362 4.72533,-2.319676 6.90414,-3.045947 0.21539,-0.07179 0.40613,-0.203063 0.60919,-0.304594 0.89206,-0.446028 1.31341,-0.946544 2.33523,-1.116847 0.35164,-0.05861 13.22348,0.481979 13.14202,0.319076 -0.1294,-0.25881 -0.19343,-3.26581 -0.98594,-3.996451 -1.40433,-1.294694 -4.64491,-1.175986 -6.11648,-1.255957 -2.61188,-0.162095 -7.56578,0.05661 -8.07023,-0.447841 -0.88252,-0.882519 -1.4067,-2.001144 -1.9291,-3.045946 -0.45482,-0.909635 -0.80547,-1.81853 -1.42144,-2.63982 -0.62078,-0.827702 -1.28781,-1.592404 -2.03063,-2.335226 -1.13029,-1.13029 -2.41467,-0.790165 -4.1628,-2.538289 -0.59858,-0.598578 -1.47394,-1.139231 -2.13216,-1.929099 -0.48889,-0.586664 -0.73674,-1.388445 -1.21838,-2.030631 -0.69379,-0.925055 -2.27107,-1.24616 -3.14748,-1.421442 -1.15433,-0.230866 -3.58605,2.038743 -5.17811,2.436757 l -0.81225,0.203063 c -1.41743,0.354359 -3.40895,-0.727408 -4.77198,-1.116847 -1.03998,-0.297136 -1.27376,-0.236293 -2.23369,-0.812252 -0.32082,-0.192486 -1.3061,-0.238149 -1.72604,-0.406126 z"></path>
        <path style="fill:#cdcdcd;" d="m 160.72444,77.442843 c 0.15089,0.256913 0.72252,1.128645 1.21838,1.624505 0.79212,0.792122 1.61632,1.616319 2.33523,2.335226 0.61063,0.610628 1.283,0.932253 1.9291,1.31991 0.20566,0.123395 0.25818,1.493995 0.30459,1.726036 0.14096,0.704798 0.62169,1.243374 0.91379,1.827568 0.35767,0.715351 0.30845,1.015316 -0.40613,1.015316 -0.57712,0 -0.98091,0.135516 -1.52297,0 -0.8317,-0.207924 -1.80209,-0.266505 -2.63982,-0.406126 -0.86794,-0.144657 -1.73469,-0.611352 -2.53829,-0.812253 -0.97313,-0.243281 -1.72388,-0.346722 -2.59653,-0.695782 -0.59736,-0.238943 -0.97318,-0.723591 -0.85555,-1.334849 -0.0966,-0.241614 0.83669,-1.113043 0.91379,-1.421442 0.156,-0.624017 0.5941,-1.193241 0.91378,-1.726036 0.4403,-0.733827 0.82939,-1.275072 1.31991,-1.929099 0.3763,-0.50173 0.71072,-0.872545 0.71072,-1.522974 z"></path>
        <path style="fill:#cdcdcd;" d="m 181.23382,66.477436 c 0.24716,0.233943 0.60919,1.218987 0.60919,2.132163 0,0.646365 0.22168,1.513952 0.60918,2.030631 0.48075,0.640991 0.70921,1.249701 1.11685,1.929099 0.3124,0.520671 0.80666,1.009717 1.11685,1.31991 0.50859,0.508594 -1.24052,0.304595 -1.62451,0.304595 -1.1345,0 -2.05994,-0.367516 -3.14747,-0.609189 -0.36938,-0.08208 -0.74457,-0.135376 -1.11685,-0.203064 -0.56589,-0.102889 -0.21104,-1.452278 -0.10153,-1.726036 0.29896,-0.747409 0.65013,-1.503328 1.01531,-2.233694 0.36471,-0.729406 0.96085,-1.416502 1.42144,-2.030631 0.0777,-0.103595 0.10154,-0.896129 0.10154,-0.913784 z"></path>
        <path style="fill:#cdcdcd;" d="m 191.69157,72.061671 c 0.18764,0.667609 0.34204,1.368167 0.50765,2.030631 0.15359,0.614353 0.36119,1.241702 0.50766,1.827568 0.18009,0.720365 0.79052,1.501236 1.31991,2.030631 1.1018,1.101803 2.13907,3.385096 2.43676,4.873515 0.23094,1.154704 0.8696,1.87019 1.52297,2.741351 0.44713,0.596165 1.08426,1.902246 1.33983,2.413379 0.19264,0.385285 -1.04068,0.421988 -1.23332,0.807273 -0.0639,0.12773 -1.77775,0.650275 -1.82259,0.639066 -1.0198,-0.254951 -1.09584,-0.385337 -1.63446,-2.539807 -0.32477,-1.299085 -0.87515,-2.586829 -1.21838,-3.959731 -0.29233,-1.169346 -0.24204,-2.459857 -0.50766,-3.655136 -0.26457,-1.190588 -0.46179,-2.446562 -1.01531,-3.553604 -0.44978,-0.899567 -0.64423,-1.78895 -0.40613,-2.741352 0.0983,-0.393243 -0.0167,-0.474219 0.20307,-0.913784 z"></path>
        <path d="m 187.78985,62.720553 c -0.27508,-0.06787 -0.43654,0.04263 -0.71875,0.25 -2.20535,1.62058 -2.54138,1.82433 -3.09375,1.71875 -0.33084,-0.06325 -1.39772,0.0191 -2.34375,0.1875 -2.79732,0.49791 -4.49754,0.33511 -6.5,-0.625 -1.86992,-0.89657 -2.30615,-0.90674 -3.59375,0 -0.78359,0.55181 -2.90714,3.20844 -3.59375,4.5 -0.22524,0.42372 -1.07692,1.41147 -1.875,2.1875 -6.48584,6.30673 -7.17238,7.11655 -7.6875,8.90625 -0.27262,0.94717 -0.79044,2.28639 -1.15625,3 -0.36581,0.71363 -0.65625,1.41237 -0.65625,1.5625 0,0.47126 0.9785,0.32562 1.75,-0.28125 0.87182,-0.68577 1.21031,-1.46456 1.625,-3.65625 0.34022,-1.7981 0.7424,-2.13923 1.21875,-1.09375 0.17426,0.38245 0.59766,0.80738 0.9375,0.9375 0.33985,0.13014 1.22615,0.77569 1.96875,1.46875 1.20984,1.12912 1.78125,1.51765 1.78125,1.15625 0,-0.47654 -0.69632,-1.47772 -1.3125,-1.875 -1.70628,-1.10012 -2.6555,-1.89933 -2.84375,-2.40625 -0.21313,-0.57387 0.74539,-2.96876 1.1875,-2.96875 0.13368,0 0.25,-0.31195 0.25,-0.6875 0,-0.37555 0.0935,-0.68749 0.21875,-0.6875 0.54396,0 4.68254,-4.20675 5.84375,-5.9375 1.31523,-1.96032 3.11947,-3.90624 3.625,-3.90625 0.36218,0 1.93772,1.43814 2.09375,1.90625 0.12452,0.37354 4.24736,1.65624 5.3125,1.65625 0.66036,0 0.70797,0.13542 1.4375,3.0625 0.30859,1.23815 1.87314,3.21876 2.53125,3.21875 0.70766,0 0.86971,-0.46022 0.3125,-0.875 -0.71487,-0.53216 -2.00001,-2.5927 -2,-3.21875 0,-0.99425 1.96523,-4.09374 2.59375,-4.09375 0.35936,0 2.07097,-0.83525 3.3125,-1.625 0.51146,-0.32534 0.68061,-0.3029 1.34375,0.21875 0.83196,0.65441 2.59375,3.2147 2.59375,3.78125 0,0.19737 -0.31194,1.10775 -0.6875,2 -0.80149,1.90424 -0.8325,2.23601 -0.25,3.125 0.24001,0.36629 0.59178,1.20134 0.78125,1.84375 0.19086,0.64714 0.54256,1.20294 0.78125,1.25 0.36824,0.07262 0.37407,-0.03949 0.125,-0.8125 -0.16025,-0.49739 -0.42786,-1.30589 -0.625,-1.78125 -0.47837,-1.15342 -0.0868,-2.59575 0.84375,-3.09375 0.38074,-0.20377 0.63251,-0.50506 0.5625,-0.6875 -0.24155,-0.62948 0.16904,-0.63659 1.4375,0.03125 2.54034,1.33746 5.20808,4.11056 5.21875,5.40625 0.003,0.31545 0.31455,0.86499 0.6875,1.21875 0.37295,0.35376 0.68751,0.83855 0.6875,1.0625 0,0.68313 0.8141,1.84712 1.625,2.3125 2.07096,0.417188 4.966,-0.121832 8.70578,0.106683 3.02222,0.184669 5.26782,0.863281 5.32044,1.134811 0.0977,0.50405 0.15095,1.132431 0.30898,1.845961 0.15804,0.71355 0.43971,1.3125 0.625,1.3125 0.59206,0 0.68414,-0.32695 0.3125,-1.0625 -0.1991,-0.39406 -0.20531,-0.742141 -0.21523,-1.220961 -0.0239,-1.15378 -0.13248,-1.284888 -0.74732,-1.733176 -0.46484,-0.31109 -4.69207,-1.107339 -6.56202,-1.284972 -1.07058,-0.101698 -4.86413,0.451896 -6.71298,0.0816 -1.32783,-0.265945 -1.87605,-1.306318 -1.84765,-1.554944 l -0.36043,-0.693165 c -0.28348,-0.401365 -0.38602,-0.781723 -0.65837,-1.099415 -0.12146,0 -0.45287,-1.01319 -1.0437,-1.92617 -1.30202,-2.01193 -2.84008,-3.31512 -5.3125,-4.5 -1.13887,-0.54578 -2.05205,-1.18439 -2.34375,-1.65625 -1.90921,-3.08856 -2.45949,-3.73951 -3.84375,-4.625 -0.70494,-0.45095 -1.09992,-0.71338 -1.375,-0.781252 z m -28.875,18.21875 c 0.0907,0.09076 0.11014,0.33409 0.0312,0.53125 -0.0872,0.21788 -0.14315,0.16193 -0.15625,-0.15625 -0.0119,-0.28792 0.0342,-0.46575 0.125,-0.375 z" style="fill:#333333;"></path>
      </g>
    </g>
  </g>
</svg>